<mxfile host="app.diagrams.net" modified="2024-07-17T19:34:17.389Z" agent="Mozilla/5.0 (Windows NT 10.0; Win64; x64) AppleWebKit/537.36 (KHTML, like Gecko) Chrome/126.0.0.0 Safari/537.36" etag="HuoKK9qWAzKA1Qspx_Jc" version="24.7.1" type="github">
  <diagram id="C5RBs43oDa-KdzZeNtuy" name="Page-1">
    <mxGraphModel dx="1120" dy="468" grid="1" gridSize="10" guides="1" tooltips="1" connect="1" arrows="1" fold="1" page="1" pageScale="1" pageWidth="827" pageHeight="1169" math="0" shadow="0">
      <root>
        <mxCell id="WIyWlLk6GJQsqaUBKTNV-0" />
        <mxCell id="WIyWlLk6GJQsqaUBKTNV-1" parent="WIyWlLk6GJQsqaUBKTNV-0" />
        <mxCell id="2mvyuT7OnR4QOL9daEKB-3" style="edgeStyle=orthogonalEdgeStyle;rounded=0;orthogonalLoop=1;jettySize=auto;html=1;entryX=0;entryY=0.5;entryDx=0;entryDy=0;" edge="1" parent="WIyWlLk6GJQsqaUBKTNV-1" source="2mvyuT7OnR4QOL9daEKB-0" target="2mvyuT7OnR4QOL9daEKB-1">
          <mxGeometry relative="1" as="geometry" />
        </mxCell>
        <mxCell id="2mvyuT7OnR4QOL9daEKB-0" value="EXTRACT" style="swimlane;whiteSpace=wrap;html=1;" vertex="1" parent="WIyWlLk6GJQsqaUBKTNV-1">
          <mxGeometry x="71" y="60" width="200" height="270" as="geometry" />
        </mxCell>
        <mxCell id="2mvyuT7OnR4QOL9daEKB-7" value="" style="edgeStyle=orthogonalEdgeStyle;rounded=0;orthogonalLoop=1;jettySize=auto;html=1;" edge="1" parent="2mvyuT7OnR4QOL9daEKB-0" source="2mvyuT7OnR4QOL9daEKB-5" target="2mvyuT7OnR4QOL9daEKB-6">
          <mxGeometry relative="1" as="geometry" />
        </mxCell>
        <mxCell id="2mvyuT7OnR4QOL9daEKB-5" value="extract from .csv" style="rounded=0;whiteSpace=wrap;html=1;" vertex="1" parent="2mvyuT7OnR4QOL9daEKB-0">
          <mxGeometry x="40" y="70" width="120" height="60" as="geometry" />
        </mxCell>
        <mxCell id="2mvyuT7OnR4QOL9daEKB-6" value="load to as panda dataframe" style="whiteSpace=wrap;html=1;rounded=0;" vertex="1" parent="2mvyuT7OnR4QOL9daEKB-0">
          <mxGeometry x="40" y="190" width="120" height="60" as="geometry" />
        </mxCell>
        <mxCell id="2mvyuT7OnR4QOL9daEKB-4" style="edgeStyle=orthogonalEdgeStyle;rounded=0;orthogonalLoop=1;jettySize=auto;html=1;entryX=0;entryY=0.5;entryDx=0;entryDy=0;" edge="1" parent="WIyWlLk6GJQsqaUBKTNV-1" source="2mvyuT7OnR4QOL9daEKB-1" target="2mvyuT7OnR4QOL9daEKB-2">
          <mxGeometry relative="1" as="geometry" />
        </mxCell>
        <mxCell id="2mvyuT7OnR4QOL9daEKB-1" value="TRANSFORM" style="swimlane;whiteSpace=wrap;html=1;" vertex="1" parent="WIyWlLk6GJQsqaUBKTNV-1">
          <mxGeometry x="370" y="60" width="200" height="400" as="geometry" />
        </mxCell>
        <mxCell id="2mvyuT7OnR4QOL9daEKB-10" value="" style="edgeStyle=orthogonalEdgeStyle;rounded=0;orthogonalLoop=1;jettySize=auto;html=1;" edge="1" parent="2mvyuT7OnR4QOL9daEKB-1" source="2mvyuT7OnR4QOL9daEKB-8" target="2mvyuT7OnR4QOL9daEKB-9">
          <mxGeometry relative="1" as="geometry" />
        </mxCell>
        <mxCell id="2mvyuT7OnR4QOL9daEKB-8" value="clean dataframe" style="whiteSpace=wrap;html=1;rounded=0;" vertex="1" parent="2mvyuT7OnR4QOL9daEKB-1">
          <mxGeometry x="40" y="70" width="120" height="60" as="geometry" />
        </mxCell>
        <mxCell id="2mvyuT7OnR4QOL9daEKB-9" value="remove duplicates" style="whiteSpace=wrap;html=1;rounded=0;" vertex="1" parent="2mvyuT7OnR4QOL9daEKB-1">
          <mxGeometry x="40" y="170" width="120" height="60" as="geometry" />
        </mxCell>
        <mxCell id="2mvyuT7OnR4QOL9daEKB-13" value="remove null" style="whiteSpace=wrap;html=1;rounded=0;" vertex="1" parent="2mvyuT7OnR4QOL9daEKB-1">
          <mxGeometry x="40" y="280" width="120" height="60" as="geometry" />
        </mxCell>
        <mxCell id="2mvyuT7OnR4QOL9daEKB-14" value="" style="edgeStyle=orthogonalEdgeStyle;rounded=0;orthogonalLoop=1;jettySize=auto;html=1;" edge="1" parent="2mvyuT7OnR4QOL9daEKB-1" source="2mvyuT7OnR4QOL9daEKB-9" target="2mvyuT7OnR4QOL9daEKB-13">
          <mxGeometry relative="1" as="geometry" />
        </mxCell>
        <mxCell id="2mvyuT7OnR4QOL9daEKB-2" value="LOAD" style="swimlane;whiteSpace=wrap;html=1;" vertex="1" parent="WIyWlLk6GJQsqaUBKTNV-1">
          <mxGeometry x="680" y="60" width="200" height="200" as="geometry" />
        </mxCell>
        <mxCell id="2mvyuT7OnR4QOL9daEKB-15" value="load to database" style="whiteSpace=wrap;html=1;" vertex="1" parent="2mvyuT7OnR4QOL9daEKB-2">
          <mxGeometry x="40" y="70" width="120" height="60" as="geometry" />
        </mxCell>
      </root>
    </mxGraphModel>
  </diagram>
</mxfile>
